<svg xmlns="http://www.w3.org/2000/svg" xmlns:xlink="http://www.w3.org/1999/xlink" viewBox="0 0 462.37 83.76"><defs><style>.cls-1,.cls-10,.cls-13,.cls-14,.cls-19,.cls-2,.cls-20,.cls-21,.cls-22,.cls-23,.cls-26,.cls-29,.cls-32,.cls-34,.cls-6,.cls-7,.cls-8,.cls-9{fill:none;}.cls-1{clip-rule:evenodd;}.cls-2{stroke:#2f2b21;}.cls-10,.cls-13,.cls-14,.cls-19,.cls-2,.cls-20,.cls-21,.cls-22,.cls-23,.cls-26,.cls-29,.cls-32,.cls-34,.cls-36,.cls-37,.cls-38,.cls-39,.cls-5,.cls-6,.cls-8,.cls-9{stroke-miterlimit:22.93;}.cls-10,.cls-2,.cls-29{stroke-width:0.57px;}.cls-10,.cls-11,.cls-13,.cls-14,.cls-15,.cls-17,.cls-19,.cls-2,.cls-21,.cls-22,.cls-23,.cls-24,.cls-26,.cls-27,.cls-29,.cls-3,.cls-30,.cls-32,.cls-34,.cls-36,.cls-37,.cls-38,.cls-39,.cls-40,.cls-5,.cls-6,.cls-7,.cls-9{fill-rule:evenodd;}.cls-3{fill:#f9d29e;}.cls-4{clip-path:url(#clip-path);}.cls-5{fill:#fff;}.cls-13,.cls-14,.cls-19,.cls-20,.cls-21,.cls-22,.cls-26,.cls-29,.cls-32,.cls-34,.cls-36,.cls-37,.cls-38,.cls-39,.cls-5,.cls-6,.cls-8,.cls-9{stroke:#1b1c20;}.cls-37,.cls-38,.cls-39,.cls-5,.cls-6,.cls-8{stroke-width:0.35px;}.cls-9{stroke-width:0.37px;}.cls-10,.cls-23{stroke:#050203;}.cls-11{fill:url(#GradientFill_1);}.cls-12{clip-path:url(#clip-path-2);}.cls-13{stroke-width:0.23px;}.cls-14{stroke-width:0.23px;}.cls-15{fill:#00a5ea;}.cls-16{clip-path:url(#clip-path-3);}.cls-17{fill:url(#GradientFill_1-2);}.cls-18{clip-path:url(#clip-path-4);}.cls-19,.cls-20{stroke-width:0.19px;}.cls-21{stroke-width:0.22px;}.cls-22{stroke-width:0.52px;}.cls-23{stroke-width:1.02px;}.cls-24,.cls-37{fill:#e50004;}.cls-25{clip-path:url(#clip-path-5);}.cls-26{stroke-width:0.23px;}.cls-27{fill:url(#GradientFill_1-3);}.cls-28{clip-path:url(#clip-path-6);}.cls-30{fill:url(#GradientFill_2);}.cls-31{clip-path:url(#clip-path-7);}.cls-32{stroke-width:0.18px;}.cls-33{clip-path:url(#clip-path-8);}.cls-34{stroke-width:0.26px;}.cls-35{clip-path:url(#clip-path-9);}.cls-36{stroke-width:0.33px;fill:url(#GradientFill_1-4);}.cls-38{fill:#ca000b;}.cls-39{fill:#ffec00;}.cls-40{fill:#1b1c20;}</style><clipPath id="clip-path"><path class="cls-1" d="M7.08,17.71C3.4,8.62,12.84,2.77,21.64,3.28a15.73,15.73,0,0,1,6.18,1.66,17.63,17.63,0,0,1,3.66,2.33c6.63,5.73,1.94,14.14-3.73,18.82,1,.55,1.38,3.7-.92,4.83-1.56.76-3,.23-3.6,1.14-1-.48-2.3-.55-2,.47a2,2,0,0,0-3.34-.59A54.51,54.51,0,0,0,11,26.56c.25-.56-.08-1.6.36-2.18-2,2.09-4.15.22-5.1-1.88C5.36,20.61,5.37,18.55,7.08,17.71Z"/></clipPath><linearGradient id="GradientFill_1" x1="28.39" y1="35.23" x2="36.69" y2="35.23" gradientUnits="userSpaceOnUse"><stop offset="0" stop-color="#f3a765"/><stop offset="1" stop-color="#fce9d0"/></linearGradient><clipPath id="clip-path-2"><path class="cls-1" d="M32.64,33.15a30.68,30.68,0,0,0,1.51-3.41c.62-1.36,1.93-.83,1.93.07s-1,2.31-1.37,3.55c1.72-1.21,2.95,2.12.95,3.41a1.18,1.18,0,0,1-.25,1.62c1.31,1.58-.83,3.75-2,3A1.7,1.7,0,0,1,33,41,2.28,2.28,0,0,1,34,38.92c-1-.68-2.63-.58-4.27.14l-.53.23C28.67,37,29.71,32.76,32.64,33.15Z"/></clipPath><clipPath id="clip-path-3"><path class="cls-1" d="M12.42,2.85c-.83-.47-1.21-.45-2-.92.67-.37.77-1.13,1.45-1.5.67.27,1.71.9,2.38,1.17,2.72-2,7.83-1.46,10.35-.23,1.91.93,3.33,2.49,2.19,4.79a6,6,0,0,1-2.64,2.38,8.59,8.59,0,0,1-5.7.63c-1,2.08-4.24,3.13-7,3C7.34,12,6,7.65,8.87,4.82A8.91,8.91,0,0,1,12.42,2.85Z"/></clipPath><linearGradient id="GradientFill_1-2" x1="32.04" y1="58.84" x2="48.26" y2="58.84" xlink:href="#GradientFill_1"/><clipPath id="clip-path-4"><path class="cls-1" d="M34.43,58c1-.42,3.38-1,4-1.87s-.42-1.19-.83-1.66a2,2,0,0,1-.51-1,1.55,1.55,0,0,1,1-.55c1.43-.17,2.42.75,2.16,1.59.38,0,.91.06.88,1.43a4,4,0,0,1,.2-2c.93-1.72,2.24-.57,2.16.89,0,.65,0,1.4,0,1.66.66-1.11,2.25-1.79,1.77.38,0,0,1.39.41,1.25.84s-.8,1.1-2.24.74c-.53.69-2,1.54-2.48,1.32-1.28,0-3.24,3.19-4.88,5.17-.89-3-1.61-3.77-2.53-4.63,0,.08-.05.15-.07.21a1.86,1.86,0,0,0-.28-.21A3.33,3.33,0,0,0,34.43,58Z"/></clipPath><clipPath id="clip-path-5"><path class="cls-1" d="M13.12,60.24c-3.08.89-5.49,7.87-5.48,12.18.47-.14,1-.63,1.46-.76a15.89,15.89,0,0,1-.87,3.1c-.61,1.57-2,3.1-2.46,4.49C4.88,81.89,7.33,81.54,9.88,82c6.39,1.09,14.22,2.06,20.63.35,1.26-.34,1.82-.86,1.62-1.61-.34-1.25-3-3.18-2.43-3.19a22.23,22.23,0,0,0,.36-8.89l.6,1.7a27.59,27.59,0,0,1,6.43-4.7c-1-3.72-1.76-4.49-2.75-5.42-.13.48-.21.42-.61.85-2.31,2.54-7.42,4.49-6.56,1.93a3.6,3.6,0,0,1-1.7,1.88l-.28.24a2,2,0,0,1-.38.13,2.14,2.14,0,0,1-2.1-.95,6,6,0,0,1-2.34.17s-.27,0-.57-.06l-.18-.21C16.63,63.68,13.63,62.37,13.12,60.24Z"/></clipPath><linearGradient id="GradientFill_1-3" x1="7.84" y1="73.59" x2="27.41" y2="73.59" xlink:href="#GradientFill_1"/><clipPath id="clip-path-6"><path class="cls-1" d="M15.53,70.67c-.72.49,2,1,3.78,2.64,1.75-1.36,5.5-2.51,7,.24a1.32,1.32,0,0,1-1.28,1.85c-.51.78-1,1.27-2,.82-1.07.74-1.2.39-2-.23-3.78,1.64-9.1,0-11.9-4.25A10.22,10.22,0,0,1,15.53,70.67Z"/></clipPath><linearGradient id="GradientFill_2" x1="14.32" y1="35.1" x2="27.3" y2="35.1" gradientUnits="userSpaceOnUse"><stop offset="0" stop-color="#fcc900"/><stop offset="1" stop-color="#ffec00"/></linearGradient><clipPath id="clip-path-7"><path class="cls-1" d="M24.26,31.48c3.3,1,1.14,5.31,1.17,7.41l-.07,0h0l-.08-.06h0a60.76,60.76,0,0,1-5.75-5.23L17.83,32l0,0a2,2,0,0,1,3.34.59c-.28-1,1.06-1,2-.47.28-.44.32-.5.86-.56h.17Z"/></clipPath><clipPath id="clip-path-8"><path class="cls-1" d="M10.93,26.59c-.32.2-.26.49-.58.69C8,27.1,6.14,28.49,4.44,30.46-.82,36.56-.92,43.21,3.21,50.4l3.47-.47c.07-.39.17-.8.22-1.2.23-1.7.73-3.3,2.29-2.54-2.44-.89-2.4-2.5-2.1-4.8a2.11,2.11,0,0,1-.81-2.17c.56-1.52,2.12-.62,2.82-.1a5.8,5.8,0,0,0,2,.7,6.85,6.85,0,0,0,2.41.11c4.68-2.58,10.42-1.58,14.35-.21a2.72,2.72,0,0,1,.46.1l0,0c2-3-1.36-4.27-.36-6.34-.44-.16-.74-.53-1.18-.69.08-.32.35-.43.43-.75-.61-.64-2.38-.69-3.14-.52l.17,0c3.3,1,1.14,5.31,1.17,7.41l-.07,0h0l-.1-.08a60.76,60.76,0,0,1-5.75-5.23A49.59,49.59,0,0,0,10.93,26.59Z"/></clipPath><clipPath id="clip-path-9"><path class="cls-1" d="M9.19,46.19c-2.44-.89-2.4-2.5-2.1-4.8a2.11,2.11,0,0,1-.81-2.17c.56-1.52,2.12-.62,2.82-.1a5.8,5.8,0,0,0,2,.7,6.85,6.85,0,0,0,2.41.11c4.84-2.67,10.82-1.51,14.76-.07,2.05-1.4,4.41-1.82,5.7-.94-1.41,1-.65,2.16-1.16,3.45,1.32.17,2.86.29,4.18.46a10.22,10.22,0,0,1-1.83,4.39c.81,3.39.61,6.15-1.65,9.27C34.9,58,35,59.7,33.73,61.06c-2.31,2.54-7.42,4.49-6.56,1.93-.9,2.15-3.29,2.95-4.37,1C19,65.19,12,62.28,13,58.59A17.74,17.74,0,0,1,8.9,55.45a10,10,0,0,1-.65-.81C4.85,57.1.77,50.27,6.62,50c-.12.87.27-1.28.28-1.26C7.13,47,7.63,45.43,9.19,46.19Z"/></clipPath><linearGradient id="GradientFill_1-4" x1="6.97" y1="52.69" x2="0.87" y2="52.69" xlink:href="#GradientFill_1"/></defs><g id="Layer_2" data-name="Layer 2"><g id="Layer_1-2" data-name="Layer 1"><path class="cls-2" d="M7.08,17.71C3.4,8.62,12.84,2.77,21.64,3.28a15.73,15.73,0,0,1,6.18,1.66,17.63,17.63,0,0,1,3.66,2.33c6.63,5.73,1.94,14.14-3.73,18.82,1,.55,1.38,3.7-.92,4.83-1.56.76-3,.23-3.6,1.14-1-.48-2.3-.55-2,.47a2,2,0,0,0-3.34-.59A54.51,54.51,0,0,0,11,26.56c.25-.56-.08-1.6.36-2.18-2,2.09-4.15.22-5.1-1.88C5.36,20.61,5.37,18.55,7.08,17.71Z"/><path class="cls-3" d="M7.08,17.71C3.4,8.62,12.84,2.77,21.64,3.28a15.73,15.73,0,0,1,6.18,1.66,17.63,17.63,0,0,1,3.66,2.33c6.63,5.73,1.94,14.14-3.73,18.82,1,.55,1.38,3.7-.92,4.83-1.56.76-3,.23-3.6,1.14-1-.48-2.3-.55-2,.47a2,2,0,0,0-3.34-.59A54.51,54.51,0,0,0,11,26.56c.25-.56-.08-1.6.36-2.18-2,2.09-4.15.22-5.1-1.88C5.36,20.61,5.37,18.55,7.08,17.71Z"/><g class="cls-4"><path class="cls-5" d="M28.62,21.59c.88.41.71,1.79,0,3s-1.95,2-2.83,1.54-.69-1.76.06-3S27.75,21.18,28.62,21.59Z"/><path class="cls-6" d="M27.09,23.54c.47.22.52.92.13,1.57s-1.09,1-1.56.78-.51-.92-.12-1.57S26.63,23.32,27.09,23.54Z"/><path class="cls-7" d="M27.09,23.54c.47.22.52.92.13,1.57s-1.09,1-1.56.78-.51-.92-.12-1.57S26.63,23.32,27.09,23.54Z"/><path class="cls-6" d="M26.23,24.53c.16.09.18.4,0,.68s-.38.43-.54.34-.18-.4,0-.68S26.07,24.43,26.23,24.53Z"/><path class="cls-7" d="M26.23,24.53c.16.09.18.4,0,.68s-.38.43-.54.34-.18-.4,0-.68S26.07,24.43,26.23,24.53Z"/><path class="cls-6" d="M23.51,23.28c-.32.55-.75,1-.49,1.62"/><path class="cls-6" d="M23.05,25.16c3.23-.81,2.19,3.91-1.16,2.53-.74-.31-1.22-1.64,0-1.83"/><path class="cls-6" d="M17.2,23.45c2.93.74,3.6,2.7.64,4.11"/><path class="cls-6" d="M19.16,27c1,2.79,3.49,3,4.8.91a5.12,5.12,0,0,0,1.42,1.34"/><line class="cls-8" x1="20.18" y1="29.96" x2="22.1" y2="30.52"/><path class="cls-9" d="M19.22,13.55c.69-.36,1.21-.79,1.9-1.15L20,13.71C19.48,14.23,19.3,14.36,19.22,13.55Z"/><path class="cls-7" d="M19.22,13.55c.69-.36,1.21-.79,1.9-1.15L20,13.71C19.48,14.23,19.3,14.36,19.22,13.55Z"/><path class="cls-9" d="M24.17,12.92c-.18.25-.43.37-.6.62a7.49,7.49,0,0,0-3,.45c-.05-.32.43-.51.79-.78C22.31,12.54,23.83,12.1,24.17,12.92Z"/><path class="cls-7" d="M24.17,12.92c-.18.25-.43.37-.6.62a7.49,7.49,0,0,0-3,.45c-.05-.32.43-.51.79-.78C22.31,12.54,23.83,12.1,24.17,12.92Z"/><path class="cls-9" d="M31.26,16.89c0-.29.07-.55.1-.85.35.19.68.3,1,.48.17.53.32,1,.49,1.57-.07.38-.14.27-.45.29A7.07,7.07,0,0,1,31.26,16.89Z"/><path class="cls-7" d="M31.26,16.89c0-.29.07-.55.1-.85.35.19.68.3,1,.48.17.53.32,1,.49,1.57-.07.38-.14.27-.45.29A7.07,7.07,0,0,1,31.26,16.89Z"/><path class="cls-5" d="M21.46,18.61c.93.44,1.08,2.21.26,3.71S19.43,24.39,18.51,24s-.9-2.36-.11-3.65S20.53,18.17,21.46,18.61Z"/><path class="cls-6" d="M19.37,20.53c.42.24.47,1,.11,1.75s-1,1.11-1.39.86-.47-1-.11-1.75S19,20.28,19.37,20.53Z"/><path class="cls-7" d="M19.37,20.53c.42.24.47,1,.11,1.75s-1,1.11-1.39.86-.47-1-.11-1.75S19,20.28,19.37,20.53Z"/><path class="cls-6" d="M18.79,21.75c.19.11.21.47.05.8s-.45.51-.64.4-.21-.47-.05-.8S18.6,21.64,18.79,21.75Z"/><path class="cls-7" d="M18.79,21.75c.19.11.21.47.05.8s-.45.51-.64.4-.21-.47-.05-.8S18.6,21.64,18.79,21.75Z"/><path class="cls-6" d="M7,17.66c1.54-.63,3.54.89,4.08,2.11"/><path class="cls-6" d="M8,20.14a2.13,2.13,0,0,1,2.12.78c.56.57,1,1.8.18,2.38-.46.33-1.41,0-1.1-1.25"/></g><path class="cls-10" d="M32.64,33.15a30.68,30.68,0,0,0,1.51-3.41c.62-1.36,1.93-.83,1.93.07s-1,2.31-1.37,3.55c1.72-1.21,2.95,2.12.95,3.41a1.18,1.18,0,0,1-.25,1.62c1.31,1.58-.83,3.75-2,3A1.7,1.7,0,0,1,33,41,2.28,2.28,0,0,1,34,38.92c-1-.68-2.63-.58-4.27.14l-.53.23C28.67,37,29.71,32.76,32.64,33.15Z"/><path class="cls-11" d="M32.64,33.15a30.68,30.68,0,0,0,1.51-3.41c.62-1.36,1.93-.83,1.93.07s-1,2.31-1.37,3.55c1.72-1.21,2.95,2.12.95,3.41a1.18,1.18,0,0,1-.25,1.62c1.31,1.58-.83,3.75-2,3A1.7,1.7,0,0,1,33,41,2.28,2.28,0,0,1,34,38.92c-1-.68-2.63-.58-4.27.14l-.53.23C28.67,37,29.71,32.76,32.64,33.15Z"/><g class="cls-12"><path class="cls-13" d="M30.55,38.45c-.1-.54.59-.88.58-1.5a8.28,8.28,0,0,0-.28-1.53c1.64,2.25,2.59-1,1.82-2.28"/><path class="cls-13" d="M34.73,33.35c-.59.69.12.9.22,1.34s-.33.73-.82.75-1.55.3-1.14,1.24c.31.7,2.23.58,2.65.09"/><path class="cls-13" d="M33.08,36.91c-1,.34-1.61.7-1.65,1.67"/><path class="cls-14" d="M33.4,38.82a4,4,0,0,0,2.7-.6"/></g><path class="cls-10" d="M12.42,2.85c-.83-.47-1.21-.45-2-.92.67-.37.77-1.13,1.45-1.5.67.27,1.71.9,2.38,1.17,2.72-2,7.83-1.46,10.35-.23,1.91.93,3.33,2.49,2.19,4.79a6,6,0,0,1-2.64,2.38,8.59,8.59,0,0,1-5.7.63c-1,2.08-4.24,3.13-7,3C7.34,12,6,7.65,8.87,4.82A8.91,8.91,0,0,1,12.42,2.85Z"/><path class="cls-15" d="M12.42,2.85c-.83-.47-1.21-.45-2-.92.67-.37.77-1.13,1.45-1.5.67.27,1.71.9,2.38,1.17,2.72-2,7.83-1.46,10.35-.23,1.91.93,3.33,2.49,2.19,4.79a6,6,0,0,1-2.64,2.38,8.59,8.59,0,0,1-5.7.63c-1,2.08-4.24,3.13-7,3C7.34,12,6,7.65,8.87,4.82A8.91,8.91,0,0,1,12.42,2.85Z"/><g class="cls-16"><path class="cls-9" d="M14.28,4.08c1.83,1.15,3,2.23,3.37,4.05"/><path class="cls-9" d="M9,8.38c0,3.94,6.64,3,8,1.22"/><path class="cls-9" d="M19,8.08c3.43.52,5.51-.33,6.66-3.45"/></g><path class="cls-10" d="M34.43,58c1-.42,3.38-1,4-1.87s-.42-1.19-.83-1.66a2,2,0,0,1-.51-1,1.55,1.55,0,0,1,1-.55c1.43-.17,2.42.75,2.16,1.59.38,0,.91.06.88,1.43a4,4,0,0,1,.2-2c.93-1.72,2.24-.57,2.16.89,0,.65,0,1.4,0,1.66.66-1.11,2.25-1.79,1.77.38,0,0,1.39.41,1.25.84s-.8,1.1-2.24.74c-.53.69-2,1.54-2.48,1.32-1.28,0-3.24,3.19-4.88,5.17-.89-3-1.61-3.77-2.53-4.63,0,.08-.05.15-.07.21a1.86,1.86,0,0,0-.28-.21A3.33,3.33,0,0,0,34.43,58Z"/><path class="cls-17" d="M34.43,58c1-.42,3.38-1,4-1.87s-.42-1.19-.83-1.66a2,2,0,0,1-.51-1,1.55,1.55,0,0,1,1-.55c1.43-.17,2.42.75,2.16,1.59.38,0,.91.06.88,1.43a4,4,0,0,1,.2-2c.93-1.72,2.24-.57,2.16.89,0,.65,0,1.4,0,1.66.66-1.11,2.25-1.79,1.77.38,0,0,1.39.41,1.25.84s-.8,1.1-2.24.74c-.53.69-2,1.54-2.48,1.32-1.28,0-3.24,3.19-4.88,5.17-.89-3-1.61-3.77-2.53-4.63,0,.08-.05.15-.07.21a1.86,1.86,0,0,0-.28-.21A3.33,3.33,0,0,0,34.43,58Z"/><g class="cls-18"><path class="cls-19" d="M39.65,56.51a2,2,0,0,1,2.84.83,5.31,5.31,0,0,0,1-1.25"/><line class="cls-20" x1="43.37" y1="56.17" x2="42.27" y2="55.78"/><path class="cls-21" d="M45.37,56.66A5.47,5.47,0,0,1,43.73,59"/></g><path class="cls-22" d="M22.16,68.82c1.14-2.62,3.95-3.24,4.83-5.34"/><path class="cls-23" d="M13.12,60.24c-3.08.89-5.49,7.87-5.48,12.18.47-.14,1-.63,1.46-.76a15.89,15.89,0,0,1-.87,3.1c-.61,1.57-2,3.1-2.46,4.49C4.88,81.89,7.33,81.54,9.88,82c6.39,1.09,14.22,2.06,20.63.35,1.26-.34,1.82-.86,1.62-1.61-.34-1.25-3-3.18-2.43-3.19a22.23,22.23,0,0,0,.36-8.89l.6,1.7a27.59,27.59,0,0,1,6.43-4.7c-1-3.72-1.76-4.49-2.75-5.42-.13.48-.21.42-.61.85-2.31,2.54-7.42,4.49-6.56,1.93a3.6,3.6,0,0,1-1.7,1.88l-.28.24a2,2,0,0,1-.38.13,2.14,2.14,0,0,1-2.1-.95,6,6,0,0,1-2.34.17s-.27,0-.57-.06l-.18-.21C16.63,63.68,13.63,62.37,13.12,60.24Z"/><path class="cls-24" d="M13.12,60.24c-3.08.89-5.49,7.87-5.48,12.18.47-.14,1-.63,1.46-.76a15.89,15.89,0,0,1-.87,3.1c-.61,1.57-2,3.1-2.46,4.49C4.88,81.89,7.33,81.54,9.88,82c6.39,1.09,14.22,2.06,20.63.35,1.26-.34,1.82-.86,1.62-1.61-.34-1.25-3-3.18-2.43-3.19a22.23,22.23,0,0,0,.36-8.89l.6,1.7a27.59,27.59,0,0,1,6.43-4.7c-1-3.72-1.76-4.49-2.75-5.42-.13.48-.21.42-.61.85-2.31,2.54-7.42,4.49-6.56,1.93a3.6,3.6,0,0,1-1.7,1.88l-.28.24a2,2,0,0,1-.38.13,2.14,2.14,0,0,1-2.1-.95,6,6,0,0,1-2.34.17s-.27,0-.57-.06l-.18-.21C16.63,63.68,13.63,62.37,13.12,60.24Z"/><g class="cls-25"><path class="cls-26" d="M10.08,63.75c1.94.57,4.26.91,5.55,3.49"/><path class="cls-26" d="M15.53,70.69a10.39,10.39,0,0,0,0-2.07,4.2,4.2,0,0,1,1.22-3.17C18.78,63.8,21,68,22.14,69c2.23-1.34,4.68-3.92,6.84-2.54.65.41,1.19.82,1.32.71a2.48,2.48,0,0,0,.27-3.74"/><path class="cls-26" d="M26.47,66.27c1.34-.9,3.65-1.36,4.55-.07"/><path class="cls-9" d="M20.25,64.53l.12-.07a6,6,0,0,0,2.34-.17,2.14,2.14,0,0,0,2.1.95,14.23,14.23,0,0,0-2.51,2.93A12.61,12.61,0,0,0,20.25,64.53Z"/><path class="cls-7" d="M20.25,64.53l.12-.07a6,6,0,0,0,2.34-.17,2.14,2.14,0,0,0,2.1.95,14.23,14.23,0,0,0-2.51,2.93A12.61,12.61,0,0,0,20.25,64.53Z"/></g><path class="cls-10" d="M15.53,70.67c-.72.49,2,1,3.78,2.64,1.75-1.36,5.5-2.51,7,.24a1.32,1.32,0,0,1-1.28,1.85c-.51.78-1,1.27-2,.82-1.07.74-1.2.39-2-.23-3.78,1.64-9.1,0-11.9-4.25A10.22,10.22,0,0,1,15.53,70.67Z"/><path class="cls-27" d="M15.53,70.67c-.72.49,2,1,3.78,2.64,1.75-1.36,5.5-2.51,7,.24a1.32,1.32,0,0,1-1.28,1.85c-.51.78-1,1.27-2,.82-1.07.74-1.2.39-2-.23-3.78,1.64-9.1,0-11.9-4.25A10.22,10.22,0,0,1,15.53,70.67Z"/><g class="cls-28"><path class="cls-26" d="M19.27,73.19c-.22.15-.62.27-.77.51"/><path class="cls-26" d="M21.05,76.05A1.75,1.75,0,0,1,21.27,75"/><path class="cls-26" d="M23.08,76.32A2,2,0,0,0,23,74.18"/><path class="cls-26" d="M25.1,75.51a2.72,2.72,0,0,0-.65-2.17"/></g><path class="cls-29" d="M24.26,31.48c3.3,1,1.14,5.31,1.17,7.41l-.07,0h0l-.08-.06h0a60.76,60.76,0,0,1-5.75-5.23L17.83,32l0,0a2,2,0,0,1,3.34.59c-.28-1,1.06-1,2-.47.28-.44.32-.5.86-.56h.17Z"/><path class="cls-30" d="M24.26,31.48c3.3,1,1.14,5.31,1.17,7.41l-.07,0h0l-.08-.06h0a60.76,60.76,0,0,1-5.75-5.23L17.83,32l0,0a2,2,0,0,1,3.34.59c-.28-1,1.06-1,2-.47.28-.44.32-.5.86-.56h.17Z"/><g class="cls-31"><path class="cls-32" d="M21.23,32.5a20.25,20.25,0,0,0,2.68,3.18"/><path class="cls-32" d="M23.27,32.14a3.81,3.81,0,0,1,1.08,2.62"/></g><path class="cls-10" d="M10.93,26.59c-.32.2-.26.49-.58.69C8,27.1,6.14,28.49,4.44,30.46-.82,36.56-.92,43.21,3.21,50.4l3.47-.47c.07-.39.17-.8.22-1.2.23-1.7.73-3.3,2.29-2.54-2.44-.89-2.4-2.5-2.1-4.8a2.11,2.11,0,0,1-.81-2.17c.56-1.52,2.12-.62,2.82-.1a5.8,5.8,0,0,0,2,.7,6.85,6.85,0,0,0,2.41.11c4.68-2.58,10.42-1.58,14.35-.21a2.72,2.72,0,0,1,.46.1l0,0c2-3-1.36-4.27-.36-6.34-.44-.16-.74-.53-1.18-.69.08-.32.35-.43.43-.75-.61-.64-2.38-.69-3.14-.52l.17,0c3.3,1,1.14,5.31,1.17,7.41l-.07,0h0l-.1-.08a60.76,60.76,0,0,1-5.75-5.23A49.59,49.59,0,0,0,10.93,26.59Z"/><path class="cls-15" d="M10.93,26.59c-.32.2-.26.49-.58.69C8,27.1,6.14,28.49,4.44,30.46-.82,36.56-.92,43.21,3.21,50.4l3.47-.47c.07-.39.17-.8.22-1.2.23-1.7.73-3.3,2.29-2.54-2.44-.89-2.4-2.5-2.1-4.8a2.11,2.11,0,0,1-.81-2.17c.56-1.52,2.12-.62,2.82-.1a5.8,5.8,0,0,0,2,.7,6.85,6.85,0,0,0,2.41.11c4.68-2.58,10.42-1.58,14.35-.21a2.72,2.72,0,0,1,.46.1l0,0c2-3-1.36-4.27-.36-6.34-.44-.16-.74-.53-1.18-.69.08-.32.35-.43.43-.75-.61-.64-2.38-.69-3.14-.52l.17,0c3.3,1,1.14,5.31,1.17,7.41l-.07,0h0l-.1-.08a60.76,60.76,0,0,1-5.75-5.23A49.59,49.59,0,0,0,10.93,26.59Z"/><g class="cls-33"><path class="cls-34" d="M10.6,27.52c1.07,1.35,2.43,2.24,2.87,4.64.16-.43.72-.56,1.68-.4l-.6,1.59c2.22,1.63,4.45,3.34,6.67,5m5.6,1a36.36,36.36,0,0,1,1-4.26"/><path class="cls-26" d="M10.37,30.16a15.11,15.11,0,0,1,.11,9.58"/></g><path class="cls-23" d="M9.19,46.19c-2.44-.89-2.4-2.5-2.1-4.8a2.11,2.11,0,0,1-.81-2.17c.56-1.52,2.12-.62,2.82-.1a5.8,5.8,0,0,0,2,.7,6.85,6.85,0,0,0,2.41.11c4.84-2.67,10.82-1.51,14.76-.07,2.05-1.4,4.41-1.82,5.7-.94-1.41,1-.65,2.16-1.16,3.45,1.32.17,2.86.29,4.18.46a10.22,10.22,0,0,1-1.83,4.39c.81,3.39.61,6.15-1.65,9.27C34.9,58,35,59.7,33.73,61.06c-2.31,2.54-7.42,4.49-6.56,1.93-.9,2.15-3.29,2.95-4.37,1C19,65.19,12,62.28,13,58.59A17.74,17.74,0,0,1,8.9,55.45a10,10,0,0,1-.65-.81C4.85,57.1.77,50.27,6.62,50c-.12.87.27-1.28.28-1.26C7.13,47,7.63,45.43,9.19,46.19Z"/><path class="cls-3" d="M9.19,46.19c-2.44-.89-2.4-2.5-2.1-4.8a2.11,2.11,0,0,1-.81-2.17c.56-1.52,2.12-.62,2.82-.1a5.8,5.8,0,0,0,2,.7,6.85,6.85,0,0,0,2.41.11c4.84-2.67,10.82-1.51,14.76-.07,2.05-1.4,4.41-1.82,5.7-.94-1.41,1-.65,2.16-1.16,3.45,1.32.17,2.86.29,4.18.46a10.22,10.22,0,0,1-1.83,4.39c.81,3.39.61,6.15-1.65,9.27C34.9,58,35,59.7,33.73,61.06c-2.31,2.54-7.42,4.49-6.56,1.93-.9,2.15-3.29,2.95-4.37,1C19,65.19,12,62.28,13,58.59A17.74,17.74,0,0,1,8.9,55.45a10,10,0,0,1-.65-.81C4.85,57.1.77,50.27,6.62,50c-.12.87.27-1.28.28-1.26C7.13,47,7.63,45.43,9.19,46.19Z"/><g class="cls-35"><path class="cls-36" d="M8.16,54.8A7.43,7.43,0,0,1,6.49,50C.61,50.28,4.76,57.46,8.16,54.8Z"/><path class="cls-6" d="M18.52,49.07c.8-1.52,3-.75,4.29-.56a1.6,1.6,0,0,1,.65,1.1c-.14.1-.72.2-.86.29-.94-.91-2-1.56-3.7-.29C18.61,49.59,18.49,49.41,18.52,49.07Z"/><path class="cls-7" d="M18.52,49.07c.8-1.52,3-.75,4.29-.56a1.6,1.6,0,0,1,.65,1.1c-.14.1-.72.2-.86.29-.94-.91-2-1.56-3.7-.29C18.61,49.59,18.49,49.41,18.52,49.07Z"/><path class="cls-6" d="M30.19,48.28c.77.08,1.54.11,2.31.19A1.33,1.33,0,0,1,33,50.56a2.48,2.48,0,0,0-3.72-.63A1.38,1.38,0,0,1,30.19,48.28Z"/><path class="cls-7" d="M30.19,48.28c.77.08,1.54.11,2.31.19A1.33,1.33,0,0,1,33,50.56a2.48,2.48,0,0,0-3.72-.63A1.38,1.38,0,0,1,30.19,48.28Z"/><path class="cls-5" d="M23,53.64c0,1.69-1.65,3.72-2.44,3.14a3.22,3.22,0,0,0-2.09-.45c-.33,0-.45-.57-.52-1.18a4.68,4.68,0,0,1,1.15-3.92C20.69,49.76,23,50.24,23,53.64Z"/><path class="cls-5" d="M32.51,54.62a1.66,1.66,0,0,1-.63,1.63,8.66,8.66,0,0,1-3.08,1.29c-1,0-1.41-1.24-1.32-2.95C27.69,50.81,32.26,51.08,32.51,54.62Z"/><path class="cls-6" d="M20,53.78c.51.22.56.72.47,1.75s-.63,1-1.52.79-.76-1-.46-1.72A1.27,1.27,0,0,1,20,53.78Z"/><path class="cls-7" d="M20,53.78c.51.22.56.72.47,1.75s-.63,1-1.52.79-.76-1-.46-1.72A1.27,1.27,0,0,1,20,53.78Z"/><path class="cls-6" d="M29.47,54.46c1.13.55.46,3.51-1,2.87C26.72,56.59,28,53.74,29.47,54.46Z"/><path class="cls-7" d="M29.47,54.46c1.13.55.46,3.51-1,2.87C26.72,56.59,28,53.74,29.47,54.46Z"/><path class="cls-6" d="M19.54,54.44a.29.29,0,0,1,.28.28.28.28,0,0,1-.28.28.27.27,0,0,1-.28-.28A.28.28,0,0,1,19.54,54.44Z"/><path class="cls-7" d="M19.54,54.44a.29.29,0,0,1,.28.28.28.28,0,0,1-.28.28.27.27,0,0,1-.28-.28A.28.28,0,0,1,19.54,54.44Z"/><path class="cls-6" d="M29,55.12a.29.29,0,1,1-.28.28A.29.29,0,0,1,29,55.12Z"/><path class="cls-7" d="M29,55.12a.29.29,0,1,1-.28.28A.29.29,0,0,1,29,55.12Z"/><path class="cls-6" d="M19.1,59.78c.82.78,2.92,0,3.49-1A4.52,4.52,0,0,0,29,60"/><path class="cls-37" d="M22.55,58.92a8.18,8.18,0,0,0,.2,2.35,2.54,2.54,0,0,0,1.39,1.94,1.31,1.31,0,0,0,1.2,0c.87-.49.3-1.74.95-2.35A4.08,4.08,0,0,1,22.55,58.92Z"/><path class="cls-6" d="M26.25,53.23c-1.6,3,2.09,4.16,2.11,4.52.1,1.93-3.48,2.33-4.25-.2"/><path class="cls-38" d="M9.08,48.43c2.75-2.24,5.44-4.55,8.22-6.77,6.63-.36,13.36.44,19.66,1.17-.5,2.69-1.5,4.41-2.89,5.16-1.91,1-4.75.63-5.75-1.28a5.29,5.29,0,0,1-.43-2.62c-.5,0-.76,0-1.27,0-.93,3.84-3.24,4.72-5.74,4.14-2.76-.63-3.63-2.07-4.05-4.83-2.5,2.5-4.5,5-7.09,7.44C8.8,50.56,9.17,49.24,9.08,48.43Z"/><path class="cls-39" d="M18,42.54c2.28,0,4.66-.14,6.93-.16,1,.57,1,1.89.41,3a3.93,3.93,0,0,1-4.69,2,3.37,3.37,0,0,1-2.38-2.87A13.7,13.7,0,0,1,18,42.54Z"/><path class="cls-39" d="M28.85,42.77l6.5.63a2.17,2.17,0,0,1,.1,1.71C34.37,48.66,27.06,48.76,28.85,42.77Z"/></g><path class="cls-40" d="M454.4,6a8.12,8.12,0,0,1,3.92,1,7.3,7.3,0,0,1,3,3,8,8,0,0,1,0,8,7.41,7.41,0,0,1-2.95,2.95,8,8,0,0,1-7.94,0,7.44,7.44,0,0,1-3-2.95,8,8,0,0,1,0-8,7.32,7.32,0,0,1,3-3,8.12,8.12,0,0,1,3.92-1Zm0,1.32a6.83,6.83,0,0,0-3.27.86,6.14,6.14,0,0,0-2.49,2.46,6.66,6.66,0,0,0,0,6.65,6.28,6.28,0,0,0,2.47,2.46,6.6,6.6,0,0,0,6.62,0,6.19,6.19,0,0,0,2.46-2.46,6.7,6.7,0,0,0,.88-3.31,6.82,6.82,0,0,0-.89-3.34,6.27,6.27,0,0,0-2.49-2.46,6.89,6.89,0,0,0-3.27-.86Zm-3.5,11.07h1.38V14.73h.82a1.77,1.77,0,0,1,1.11.3,7,7,0,0,1,1.45,2l.76,1.35h1.69l-1.05-1.68a9.45,9.45,0,0,0-1.27-1.7,2.23,2.23,0,0,0-.73-.46,2.63,2.63,0,0,0,1.79-.78,2.32,2.32,0,0,0,.67-1.64,2.29,2.29,0,0,0-.4-1.26A2.17,2.17,0,0,0,456,10a7.22,7.22,0,0,0-2.19-.23h-3v8.58Zm1.38-4.83H454a2.69,2.69,0,0,0,1.64-.36,1.18,1.18,0,0,0,.44-.95,1.2,1.2,0,0,0-.21-.69,1.26,1.26,0,0,0-.59-.44,4.28,4.28,0,0,0-1.39-.15h-1.58Z"/><path class="cls-24" d="M113.83,48H100.3l-.48.86c-.53.92-1,1.76-1.37,2.5s-.72,1.52-1,2.3a13.34,13.34,0,0,0-.65,2.07,10,10,0,0,0-.19,1.74c0,1.67,1,2.62,3,2.88L99,62.66H84.42l.52-2.28a5.91,5.91,0,0,0,2.12-.93,8.23,8.23,0,0,0,1.75-1.78,39.84,39.84,0,0,0,2.35-3.87l21.5-38.62h10l1.48,37a32.54,32.54,0,0,0,.25,3.35,13,13,0,0,0,.45,2.09,5.94,5.94,0,0,0,.68,1.45,2.6,2.6,0,0,0,1,.9,4.44,4.44,0,0,0,1.38.42l-.52,2.28H109.47l.52-2.28a4.39,4.39,0,0,0,2.41-.78,3.49,3.49,0,0,0,1.23-1.84,12.25,12.25,0,0,0,.34-3.24c0-1,0-2-.07-3.1L113.83,48ZM102.44,44h11.29l-.14-8.31c0-3-.07-5.4-.07-7.33,0-1.48,0-3,0-4.54h-.42L102.44,44Zm65,18.68H153l4.33-18.83c.62-2.66,1-4.52,1.14-5.53a20.1,20.1,0,0,0,.2-2.39,3.42,3.42,0,0,0-.66-2.32,2.36,2.36,0,0,0-1.9-.75,4.63,4.63,0,0,0-2.42.82,16,16,0,0,0-2.94,2.6,15.55,15.55,0,0,0-2.6,3.74,20.31,20.31,0,0,0-1.55,4.91l-3.81,17.75h-9.92l5.43-24.42.46-2.38a13.85,13.85,0,0,0,.29-2.57,2.22,2.22,0,0,0-.81-2,5.61,5.61,0,0,0-2.54-.67l.52-2.28,9.51-.39h3.64l-2,7.47.42.15A32.69,32.69,0,0,1,152.28,31a14,14,0,0,1,4.06-2.42,12.9,12.9,0,0,1,4.49-.75,7.67,7.67,0,0,1,5.6,2,7.27,7.27,0,0,1,2,5.49,25.26,25.26,0,0,1-.68,5.36l-2.85,12.81c-.22,1.06-.38,1.87-.46,2.45a11.19,11.19,0,0,0-.12,1.49,2.61,2.61,0,0,0,.78,2.17,5.29,5.29,0,0,0,2.68.84l-.42,2.28Zm41.49,0H194.54l4.32-18.83c.63-2.66,1-4.52,1.15-5.53a20.1,20.1,0,0,0,.2-2.39,3.42,3.42,0,0,0-.66-2.32,2.38,2.38,0,0,0-1.9-.75,4.6,4.6,0,0,0-2.42.82A17.52,17.52,0,0,0,189.69,40a20.31,20.31,0,0,0-1.55,4.91l-3.82,17.75H174.4l5.43-24.42c.11-.56.26-1.35.47-2.38a13.85,13.85,0,0,0,.29-2.57,2.22,2.22,0,0,0-.81-2,5.68,5.68,0,0,0-2.54-.67l.52-2.28,9.5-.39h3.64l-2,7.47.41.15A33.26,33.26,0,0,1,193.77,31a14,14,0,0,1,4.07-2.42,12.8,12.8,0,0,1,4.48-.75,7.64,7.64,0,0,1,5.6,2A7.28,7.28,0,0,1,210,35.26a25.35,25.35,0,0,1-.69,5.36l-2.85,12.81c-.22,1.06-.37,1.87-.46,2.45a11,11,0,0,0-.11,1.49,2.61,2.61,0,0,0,.78,2.17,5.26,5.26,0,0,0,2.68.84l-.43,2.28Zm36.38-32.39,3.12-2.49,3.88.56-5.33,24.12c-.28,1.21-.49,2.19-.62,2.94a10.91,10.91,0,0,0-.19,1.86,2.94,2.94,0,0,0,.77,2.25,4.67,4.67,0,0,0,2.7.87l-.38,2.28H235.93l1.87-7.1-.45-.13A29.24,29.24,0,0,1,233,60.16a13.06,13.06,0,0,1-4,2.36,13.48,13.48,0,0,1-4.51.7,7.77,7.77,0,0,1-4.25-1.15,7.55,7.55,0,0,1-2.91-3.61,15.87,15.87,0,0,1-1.07-6.29,32.49,32.49,0,0,1,.85-7.33,28.9,28.9,0,0,1,2.5-6.9,19.17,19.17,0,0,1,4.2-5.49A17.35,17.35,0,0,1,229.5,29a19.79,19.79,0,0,1,7-1.2,15.16,15.16,0,0,1,8.79,2.49ZM240,41.14a21.84,21.84,0,0,0,.4-2.48A22,22,0,0,0,240.6,36a5.83,5.83,0,0,0-.87-3.47,3.29,3.29,0,0,0-2.83-1.17c-2.15,0-4.05,1.08-5.72,3.23a25.58,25.58,0,0,0-4,8.71,36.69,36.69,0,0,0-1.53,9.79,7.52,7.52,0,0,0,.75,3.78,2.5,2.5,0,0,0,2.3,1.24,7,7,0,0,0,4.65-2.24,17.56,17.56,0,0,0,3.82-5.24,38.21,38.21,0,0,0,2.6-8.23l.27-1.28Zm21.6-2.6a27.91,27.91,0,0,0,.83-5.18,2.38,2.38,0,0,0-.73-2,5.29,5.29,0,0,0-2.62-.74l.52-2.28L269,28h3.76l-2,7.47.41.15a31.57,31.57,0,0,1,4.36-4.69,13.23,13.23,0,0,1,4-2.39,13.56,13.56,0,0,1,4.54-.71,7.77,7.77,0,0,1,4.25,1.15,7.55,7.55,0,0,1,2.91,3.61,15.76,15.76,0,0,1,1.07,6.27,33.09,33.09,0,0,1-.84,7.35,29.65,29.65,0,0,1-2.49,6.9,19,19,0,0,1-4.17,5.48A18.12,18.12,0,0,1,279.1,62a20,20,0,0,1-7,1.19,16.84,16.84,0,0,1-5.95-1.08l-1.55,7.3c-.07.37-.14.72-.19,1.07s-.1.63-.13.93,0,.55,0,.81a2.65,2.65,0,0,0,.78,2.14,5,5,0,0,0,2.68.86l-.38,2.3H253l8.69-39Zm6.93,11.32a23.06,23.06,0,0,0-.56,5,6,6,0,0,0,.85,3.63,3.35,3.35,0,0,0,2.85,1.11,6.74,6.74,0,0,0,2.37-.42,6.86,6.86,0,0,0,2.15-1.37A11.53,11.53,0,0,0,278.36,55a27.9,27.9,0,0,0,2.36-5.18,40.22,40.22,0,0,0,1.62-6.11,32.78,32.78,0,0,0,.58-5.87,7.44,7.44,0,0,0-.75-3.78,2.46,2.46,0,0,0-2.29-1.23,6.91,6.91,0,0,0-4.65,2.24,17.11,17.11,0,0,0-3.79,5.16,38.6,38.6,0,0,0-2.6,8.31l-.27,1.28Zm31.11-21.52H314l-4.33,18.81c-.62,2.69-1,4.53-1.14,5.54a18.8,18.8,0,0,0-.21,2.39,3.51,3.51,0,0,0,.64,2.36,2.36,2.36,0,0,0,1.89.72,3.73,3.73,0,0,0,1.49-.33,6.18,6.18,0,0,0,1.59-1,23.84,23.84,0,0,0,1.94-1.78,17.06,17.06,0,0,0,2-2.43,15.28,15.28,0,0,0,1.43-2.79,27.87,27.87,0,0,0,1.06-3.77l3.8-17.75h9.94l-5.44,24.42c-.12.56-.27,1.35-.47,2.38a14.81,14.81,0,0,0-.3,2.57,2.22,2.22,0,0,0,.82,2,5.47,5.47,0,0,0,2.54.68l-.51,2.28H317.74l1.87-7.1-.42-.13a26.35,26.35,0,0,1-6.21,5.9,12.47,12.47,0,0,1-6.8,1.89,7.53,7.53,0,0,1-5.53-2,7.25,7.25,0,0,1-2-5.48,25.35,25.35,0,0,1,.69-5.36l2.85-12.81c.22-1.06.37-1.87.46-2.45a11.41,11.41,0,0,0,.13-1.49,2.62,2.62,0,0,0-.77-2.15,5.55,5.55,0,0,0-2.69-.86l.41-2.28Zm69,9.41h-6.2a7.32,7.32,0,0,0-.49-3.22,1.8,1.8,0,0,0-1.72-.9,3.25,3.25,0,0,0-1.15.22,6.11,6.11,0,0,0-1.4.8,12.19,12.19,0,0,0-1.86,1.85A19.3,19.3,0,0,0,354,39a14.41,14.41,0,0,0-1.21,2.54,24.29,24.29,0,0,0-.9,3.38l-3.81,17.75H338.2l5.43-24.42a26.06,26.06,0,0,0,.76-5,2.2,2.2,0,0,0-.82-2,5.61,5.61,0,0,0-2.54-.67l.52-2.28,9.51-.39H355l-2.59,8,.42.14a23.24,23.24,0,0,1,6.12-6.22,12.35,12.35,0,0,1,6.95-2.12,19.59,19.59,0,0,1,4.86.66l-2.05,9.31ZM405,62.66l.42-2.28a5.29,5.29,0,0,1-2.68-.84,2.61,2.61,0,0,1-.78-2.17,11.19,11.19,0,0,1,.12-1.49c.08-.58.24-1.39.46-2.45l2.85-12.81a25.26,25.26,0,0,0,.68-5.36,7.27,7.27,0,0,0-2-5.49,7.67,7.67,0,0,0-5.6-2,12.9,12.9,0,0,0-4.49.75A14,14,0,0,0,389.89,31a32.69,32.69,0,0,0-4.43,4.62l-.42-.15L387,28h-3.64l-9.51.39-.52,2.28a5.61,5.61,0,0,1,2.54.67,2.22,2.22,0,0,1,.81,2,13.85,13.85,0,0,1-.29,2.57L376,38.24l-5.44,24.42h9.93l3.81-17.75A20.31,20.31,0,0,1,385.8,40a15.55,15.55,0,0,1,2.6-3.74,16,16,0,0,1,2.94-2.6,4.63,4.63,0,0,1,2.42-.82,2.36,2.36,0,0,1,1.9.75,3.42,3.42,0,0,1,.66,2.32,20.1,20.1,0,0,1-.2,2.39c-.14,1-.52,2.87-1.14,5.53l-4.33,18.83Zm36.38-32.39,3.12-2.49,3.87.56-5.33,24.12c-.28,1.21-.48,2.19-.61,2.94a10.91,10.91,0,0,0-.19,1.86,2.9,2.9,0,0,0,.77,2.25,4.63,4.63,0,0,0,2.69.87l-.38,2.28H432l1.87-7.1-.45-.13a29.23,29.23,0,0,1-4.38,4.73,13.3,13.3,0,0,1-4,2.36,13.48,13.48,0,0,1-4.51.7,7.81,7.81,0,0,1-4.26-1.15,7.59,7.59,0,0,1-2.9-3.61,15.86,15.86,0,0,1-1.08-6.29,33.07,33.07,0,0,1,.85-7.33,28.92,28.92,0,0,1,2.51-6.9,19.14,19.14,0,0,1,4.19-5.49A17.39,17.39,0,0,1,425.62,29a19.75,19.75,0,0,1,7-1.2,15.16,15.16,0,0,1,8.79,2.49Zm-5.24,10.87a24.1,24.1,0,0,0,.56-5.12,5.83,5.83,0,0,0-.86-3.47A3.31,3.31,0,0,0,433,31.38q-3.22,0-5.71,3.23a25.58,25.58,0,0,0-4,8.71,37.05,37.05,0,0,0-1.52,9.79,7.64,7.64,0,0,0,.74,3.78,2.52,2.52,0,0,0,2.3,1.24,7,7,0,0,0,4.66-2.24,17.53,17.53,0,0,0,3.81-5.24,37.66,37.66,0,0,0,2.6-8.23Z"/></g></g></svg>